<?xml version="1.0" standalone="no"?><!DOCTYPE svg PUBLIC "-//W3C//DTD SVG 1.1//EN" "http://www.w3.org/Graphics/SVG/1.1/DTD/svg11.dtd"><svg t="1534916397354" class="icon" style="" viewBox="0 0 1024 1024" version="1.1" xmlns="http://www.w3.org/2000/svg" p-id="6685" xmlns:xlink="http://www.w3.org/1999/xlink" width="200" height="200"><defs><style type="text/css"></style></defs><path d="M284.444444 910.222222v28.444445c0 17.066667 11.377778 28.444444 25.6 28.444444h631.466667c14.222222 0 25.6-11.377778 25.6-28.444444V312.888889h-256V56.888889h45.511111-446.577778c-14.222222 0-25.6 11.377778-25.6 28.444444v170.666667H227.555556V85.333333c0-48.355556 36.977778-85.333333 79.644444-85.333333h472.177778L1024 261.688889V938.666667c0 48.355556-36.977778 85.333333-79.644444 85.333333H307.2C264.533333 1024 227.555556 987.022222 227.555556 938.666667v-28.444445h56.888888zM941.511111 256L768 68.266667V256h173.511111z" fill="#6F6F6F" p-id="6686"></path><path d="M0 284.444444v568.888889h568.888889V284.444444H0z m372.622222 398.222223h-48.355555c-11.377778-45.511111-22.755556-93.866667-34.133334-139.377778 0 0 0-2.844444-2.844444-2.844445-2.844444-8.533333-2.844444-19.911111-2.844445-28.444444 0 2.844444 0 5.688889-2.844444 8.533333 0 8.533333-2.844444 17.066667-5.688889 25.6-5.688889 22.755556-17.066667 68.266667-36.977778 136.533334H190.577778L113.777778 455.111111h54.044444c19.911111 73.955556 34.133333 125.155556 42.666667 145.066667 2.844444 8.533333 2.844444 17.066667 5.688889 25.6 2.844444-8.533333 2.844444-17.066667 5.688889-25.6 8.533333-28.444444 19.911111-76.8 34.133333-145.066667h54.044444c19.911111 85.333333 31.288889 133.688889 34.133334 145.066667 2.844444 8.533333 2.844444 17.066667 5.688889 25.6 2.844444-8.533333 2.844444-17.066667 5.688889-25.6 8.533333-28.444444 25.6-76.8 45.511111-145.066667H455.111111l-82.488889 227.555556z" fill="#3B73C2" p-id="6687"></path><path d="M625.777778 398.222222h284.444444v56.888889H625.777778zM625.777778 540.444444h284.444444v56.888889H625.777778zM625.777778 682.666667h284.444444v56.888889H625.777778z" fill="#6F6F6F" p-id="6688"></path></svg>