<?xml version="1.0" standalone="no"?><!DOCTYPE svg PUBLIC "-//W3C//DTD SVG 1.1//EN" "http://www.w3.org/Graphics/SVG/1.1/DTD/svg11.dtd"><svg t="1534916444996" class="icon" style="" viewBox="0 0 1024 1024" version="1.1" xmlns="http://www.w3.org/2000/svg" p-id="7980" xmlns:xlink="http://www.w3.org/1999/xlink" width="200" height="200"><defs><style type="text/css"></style></defs><path d="M609.495 176.652v59.99h272.152v37.505H609.495v62.142h272.152v37.49H609.495v60.005h272.152v37.505H609.495v61.074h272.152v37.49H609.495v60.005h272.152v37.505H609.495v61.059h272.152v37.505H609.495v79.284H962V176.65zM62 156.388v706.837L567.716 962V62L62 156.387z m319.978 542.587l-64.786-119.784c-2.334-4.346-4.739-12.193-7.228-23.541h-0.928c-1.238 5.597-4.036 13.669-8.395 24.23L235.63 698.96h-92.04l115.82-180.604L153.602 338.02h93.684l53.832 110.46c4.345 9.015 8.072 18.957 11.18 29.827h0.928c3.262-9.787 7.228-20.123 11.882-30.994l59.429-109.293h85.992L361.475 516.992 473.328 698.99h-91.35z" fill="#2F7043" p-id="7981"></path></svg>