<?xml version="1.0" standalone="no"?><!DOCTYPE svg PUBLIC "-//W3C//DTD SVG 1.1//EN" "http://www.w3.org/Graphics/SVG/1.1/DTD/svg11.dtd"><svg t="1534920925646" class="icon" style="" viewBox="0 0 1024 1024" version="1.1" xmlns="http://www.w3.org/2000/svg" p-id="18997" xmlns:xlink="http://www.w3.org/1999/xlink" width="200" height="200"><defs><style type="text/css"></style></defs><path d="M468.992 133.12c-9.216 58.368-4.096 117.76 9.216 176.128 22.528-58.368 26.624-126.976-9.216-176.128z m-316.416 750.592c50.176-35.84 81.92-86.016 113.664-135.168-41.984 39.936-87.04 84.992-113.664 135.168z m225.28-212.992c67.584-22.528 135.168-45.056 207.872-58.368-45.056-45.056-86.016-90.112-112.64-140.288-26.624 68.608-58.368 136.192-95.232 198.656z" fill="#EF5350" p-id="18998"></path><path d="M1024 0H0v1024h1024V0z m-158.72 715.776c-80.896 5.12-152.576-36.864-220.16-64.512-99.328 9.216-193.536 36.864-287.744 64.512-40.96 68.608-80.896 151.552-148.48 197.632-35.84 27.648-112.64 5.12-94.208-50.176 31.744-72.704 103.424-114.688 171.008-151.552 18.432-9.216 31.744-27.648 40.96-46.08 45.056-87.04 90.112-174.08 125.952-265.216-19.456-82.944-46.08-169.984-32.768-262.144 4.096-36.864 54.272-46.08 80.896-31.744 18.432 14.336 26.624 36.864 26.624 55.296 0 64.512-9.216 133.12-18.432 197.632-4.096 31.744 13.312 59.392 26.624 82.944 31.744 59.392 76.8 114.688 135.168 151.552 71.68-9.216 144.384-18.432 216.064 5.12 46.08 16.384 31.744 116.736-21.504 116.736z" fill="#EF5350" p-id="18999"></path><path d="M744.448 634.88c45.056 22.528 99.328 45.056 149.504 31.744-35.84-45.056-99.328-31.744-149.504-31.744z" fill="#EF5350" p-id="19000"></path></svg>