<?xml version="1.0" standalone="no"?><!DOCTYPE svg PUBLIC "-//W3C//DTD SVG 1.1//EN" "http://www.w3.org/Graphics/SVG/1.1/DTD/svg11.dtd"><svg t="1534918192745" class="icon" style="" viewBox="0 0 1210 1024" version="1.1" xmlns="http://www.w3.org/2000/svg" p-id="16482" xmlns:xlink="http://www.w3.org/1999/xlink" width="236.328125" height="200"><defs><style type="text/css"></style></defs><path d="M1210.320884 0H143.488497v150.219301H0v873.780699h1066.832387v-150.219301h143.488497z m-204.983567 212.020317v392.83418l-242.920825-242.920825-356.120705 355.814759L275.351061 602.712877l-21.110248-21.416193-20.192411 22.639976L61.189125 782.608903V212.020317zM61.189125 962.50493v-91.783687l195.805198-202.841948 130.02689 114.729608 20.804302 20.804303 20.192412-22.945922 334.09262-331.33911 242.920824 242.920825v270.455931z m1087.330744-150.219301h-81.687482V150.219301H204.983567V61.189125h943.842247z" fill="#F57A44" p-id="16483"></path><path d="M228.235435 409.967135m-57.823723 0a57.823723 57.823723 0 1 0 115.647445 0 57.823723 57.823723 0 1 0-115.647445 0Z" fill="#F57A44" p-id="16484"></path></svg>