<?xml version="1.0" standalone="no"?><!DOCTYPE svg PUBLIC "-//W3C//DTD SVG 1.1//EN" "http://www.w3.org/Graphics/SVG/1.1/DTD/svg11.dtd"><svg t="1534844939091" class="icon" style="" viewBox="0 0 1024 1024" version="1.1" xmlns="http://www.w3.org/2000/svg" p-id="14922" xmlns:xlink="http://www.w3.org/1999/xlink" width="200" height="200"><defs><style type="text/css"></style></defs><path d="M742.942118 73.848471c14.456471-13.492706 38.008471-13.492706 52.525176 0l193.355294 210.281412c14.456471 13.492706 14.456471 35.297882 0 48.730353l-131.553882 3.553882 0 372.133647c0 18.251294-16.082824 33.189647-35.779765 33.189647l-104.508235 0c-19.696941 0-35.779765-14.938353-35.779765-33.189647L681.200941 336.414118 549.406118 332.860235c-14.516706-13.492706-14.516706-35.297882 0-48.730353L742.942118 73.848471z" p-id="14923"></path><path d="M73.246118 471.883294l442.970353 0c-0.120471-12.528941-0.301176-25.178353-0.542118-37.948235C515.433412 418.153412 515.252706 402.672941 515.132235 387.312941 515.072 378.036706 515.011765 368.880941 515.011765 359.785412l0-4.216471-441.765647 0c-20.600471 0-37.345882 16.685176-37.345882 37.285647l0 41.682824C35.900235 455.137882 52.585412 471.883294 73.246118 471.883294z" p-id="14924"></path><path d="M73.246118 716.137412l259.373176 0c-0.060235-0.060235-0.060235-0.060235-0.060235-0.120471l183.657412 0c-0.120471-12.528941-0.301176-25.178353-0.542118-37.948235-0.301176-15.721412-0.481882-31.262118-0.542118-46.622118C515.072 622.230588 515.011765 613.014588 515.011765 603.919059l0-4.216471-441.765647 0c-20.600471 0-37.345882 16.685176-37.345882 37.285647l0 0.120471 0 41.562353 0 0.120471C35.900235 699.452235 52.585412 716.137412 73.246118 716.137412z" p-id="14925"></path><path d="M959.668706 843.956706 73.246118 843.956706c-20.600471 0-37.345882 16.685176-37.345882 37.285647l0 41.682824c0 20.600471 16.685176 37.285647 37.345882 37.285647l886.482824 0c20.600471 0 37.285647-16.685176 37.285647-37.285647L997.014588 881.242353C997.014588 860.641882 980.269176 843.956706 959.668706 843.956706z" p-id="14926"></path><path d="M73.246118 111.435294l443.030588 0L502.964706 129.264941C490.977882 145.408 478.810353 161.852235 466.401882 178.778353l-36.141176 48.971294L73.246118 227.749647c-20.600471 0-37.345882-16.685176-37.345882-37.285647L35.900235 148.781176C35.900235 128.180706 52.585412 111.435294 73.246118 111.435294z" p-id="14927"></path></svg>