<?xml version="1.0" standalone="no"?><!DOCTYPE svg PUBLIC "-//W3C//DTD SVG 1.1//EN" "http://www.w3.org/Graphics/SVG/1.1/DTD/svg11.dtd"><svg t="1535969471760" class="icon" style="" viewBox="0 0 1025 1024" version="1.1" xmlns="http://www.w3.org/2000/svg" p-id="6336" xmlns:xlink="http://www.w3.org/1999/xlink" width="200.1953125" height="200"><defs><style type="text/css"></style></defs><path d="M640 85.34016q78.00832 0 149.17632 30.49472t122.49088 81.83808 81.83808 122.49088 30.49472 149.17632q0 84.992-35.00032 160.6656t-96.6656 129.16736-140.00128 77.49632l20.992-20.66432q18.00192-18.3296 27.99616-42.65984 9.33888-22.67136 9.33888-49.33632 0-6.67648-0.32768-9.33888 59.33056-41.32864 93.83936-105.84064t34.5088-139.50976q0-60.66176-23.67488-115.99872t-63.67232-95.3344-95.3344-63.67232-115.99872-23.67488q-55.33696 0-106.496 19.82464t-90.0096 53.84192-65.00352 81.32608-33.83296 101.00736l-88.65792 0q-70.67648 0-120.66816 49.99168t-49.99168 120.66816q0 38.66624 15.17568 71.65952t39.8336 54.1696 54.82496 32.99328 60.8256 11.83744l49.99168 0q11.6736 29.32736 30.0032 48.00512l37.66272 37.33504-117.6576 0q-69.67296 0-128.49152-34.32448t-93.16352-93.16352-34.32448-128.49152 34.32448-128.49152 93.16352-93.16352 128.49152-34.32448l21.99552 0q26.33728-74.3424 79.33952-132.15744t126.83264-90.8288 155.83232-32.99328zM554.65984 426.65984q17.67424 0 30.16704 12.4928t12.4928 30.16704l0 281.00608 55.00928-55.33696q12.32896-12.32896 30.33088-12.32896 18.3296 0 30.49472 12.16512t12.16512 30.49472q0 18.00192-12.32896 30.33088l-128 128q-12.32896 12.32896-30.33088 12.32896t-30.33088-12.32896l-128-128q-12.32896-13.0048-12.32896-30.33088 0-17.67424 12.4928-30.16704t30.16704-12.4928q18.00192 0 30.33088 12.32896l55.00928 55.33696 0-281.00608q0-17.67424 12.4928-30.16704t30.16704-12.4928z" p-id="6337"></path></svg>