<?xml version="1.0" encoding="utf-8"?>
<!-- Generator: Adobe Illustrator 21.0.0, SVG Export Plug-In . SVG Version: 6.00 Build 0)  -->
<svg version="1.1" id="图层_1" xmlns="http://www.w3.org/2000/svg" xmlns:xlink="http://www.w3.org/1999/xlink" x="0px" y="0px"
	 viewBox="0 0 35 30" style="enable-background:new 0 0 35 30;" xml:space="preserve">
<style type="text/css">
	.st0{fill:#23C6C8;}
	.st1{fill:#FFFFFF;}
</style>
<g>
	<path class="st0" d="M31,30H4c-2.2,0-4-1.8-4-4V4c0-2.2,1.8-4,4-4h27c2.2,0,4,1.8,4,4v22C35,28.2,33.2,30,31,30z"/>
</g>
<path class="st1" d="M16.6,22.8V5c0.1-0.4,0.4-0.8,0.9-0.8s0.8,0.3,0.9,0.8v17.7l6.7-6.8c0.2-0.2,0.5-0.3,0.9-0.2
	c0.3,0.1,0.5,0.3,0.6,0.6c0.1,0.3,0,0.6-0.2,0.9l-8.2,8.2c-0.4,0.4-1,0.4-1.4,0l-8.2-8.2c-0.3-0.3-0.3-0.9,0-1.2
	c0.3-0.3,0.9-0.3,1.2,0L16.6,22.8z"/>
<path class="st1" d="M19.2,7.1"/>
</svg>
