<?xml version="1.0" standalone="no"?><!DOCTYPE svg PUBLIC "-//W3C//DTD SVG 1.1//EN" "http://www.w3.org/Graphics/SVG/1.1/DTD/svg11.dtd"><svg t="1535011587646" class="icon" style="" viewBox="0 0 1024 1024" version="1.1" xmlns="http://www.w3.org/2000/svg" p-id="2627" xmlns:xlink="http://www.w3.org/1999/xlink" width="200" height="200"><defs><style type="text/css"></style></defs><path d="M763.733333 349.866667C729.6 243.2 631.466667 170.666667 512 170.666667 396.8 170.666667 298.666667 243.2 260.266667 341.333333 157.866667 375.466667 85.333333 473.6 85.333333 584.533333c0 145.066667 119.466667 260.266667 268.8 260.266667 34.133333 0 302.933333 8.533333 320 8.533333 149.333333 0 268.8-115.2 268.8-260.266666-4.266667-110.933333-76.8-209.066667-179.2-243.2z m-93.866666 392.533333h-106.666667s-166.4-8.533333-162.133333-166.4c-4.266667-25.6-25.6-42.666667-55.466667-42.666667-25.6 0-46.933333 17.066667-51.2 38.4v21.333334c0 55.466667 17.066667 106.666667 46.933333 145.066666-85.333333-4.266667-153.6-72.533333-153.6-153.6 0-46.933333 21.333333-89.6 55.466667-119.466666 29.866667-25.6 64-38.4 106.666667-38.4h4.266666c34.133333 0 59.733333 12.8 85.333334 29.866666 4.266667 4.266667 8.533333 8.533333 17.066666 12.8 29.866667 25.6 51.2 64 51.2 106.666667v21.333333c8.533333 21.333333 25.6 38.4 51.2 38.4h106.666667s64-8.533333 51.2-68.266666c-8.533333-21.333333-25.6-38.4-51.2-38.4h-59.733333c-4.266667-34.133333-12.8-46.933333-29.866667-76.8-4.266667-8.533333-12.8-17.066667-17.066667-25.6-12.8-17.066667-29.866667-34.133333-51.2-46.933334-17.066667-12.8-29.866667-21.333333-51.2-29.866666-12.8-8.533333-38.4-17.066667-64-21.333334 29.866667-34.133333 72.533333-55.466667 119.466667-55.466666 51.2 0 98.133333 25.6 128 59.733333 0 4.266667 4.266667 8.533333 4.266667 12.8 17.066667 25.6 25.6 55.466667 25.6 85.333333 38.4 0 76.8 12.8 102.4 38.4 34.133333 29.866667 55.466667 72.533333 55.466666 119.466667 4.266667 81.066667-68.266667 153.6-157.866666 153.6z" fill="" p-id="2628"></path></svg>