<?xml version="1.0" standalone="no"?><!DOCTYPE svg PUBLIC "-//W3C//DTD SVG 1.1//EN" "http://www.w3.org/Graphics/SVG/1.1/DTD/svg11.dtd"><svg t="1539336534063" class="icon" style="" viewBox="0 0 1026 1024" version="1.1" xmlns="http://www.w3.org/2000/svg" p-id="2442" xmlns:xlink="http://www.w3.org/1999/xlink" width="200.390625" height="200"><defs><style type="text/css"></style></defs><path d="M450.102185 191.85563l127.905457 0 0 127.906479-127.905457 0 0-127.906479Z" p-id="2443"></path><path d="M514.055424 0.001022C231.517861 0.001022 2.43462 229.081196 2.43462 511.61876c0 282.541652 229.083241 511.620804 511.620804 511.620804 282.54063 0 511.619782-229.079152 511.619782-511.620804C1025.675207 229.081196 796.596055 0.001022 514.055424 0.001022zM194.292294 831.381891c-42.340109 0-63.952217-23.043036-63.952217-63.952217L130.340077 383.714326c0-40.906115 21.613131-63.952217 63.952217-63.952217L194.292294 831.381891zM769.865316 831.381891 258.244511 831.381891 258.244511 319.762108l127.905457 0L386.149968 191.85563c0-40.905093 21.613131-63.951195 63.952217-63.951195l140.710209-0.059281c42.407567 0 51.147465 23.105383 51.147465 64.010476l0 127.906479 127.905457 0L769.865316 831.381891zM833.817533 831.381891l0-63.952217L833.817533 383.714326l0-63.952217c42.345219 0 63.952217 23.046102 63.952217 63.952217l0 383.714326C897.76975 808.338855 876.162752 831.381891 833.817533 831.381891z" p-id="2444"></path></svg>