<?xml version="1.0" standalone="no"?><!DOCTYPE svg PUBLIC "-//W3C//DTD SVG 1.1//EN" "http://www.w3.org/Graphics/SVG/1.1/DTD/svg11.dtd"><svg t="1535350882722" class="icon" style="" viewBox="0 0 1024 1024" version="1.1" xmlns="http://www.w3.org/2000/svg" p-id="8424" xmlns:xlink="http://www.w3.org/1999/xlink" width="200" height="200"><defs><style type="text/css"></style></defs><path d="M812.032 192h-40.064a20.48 20.48 0 0 0-19.968 20.032V305.28c0 11.968-13.312 19.968-21.312 10.688a293.12 293.12 0 0 0-249.344-96 256.32 256.32 0 0 0-98.688 29.312c-16 8-32 17.28-45.312 27.968-9.344 6.656-10.688 21.376-2.688 30.72l28.032 27.968c6.656 6.656 17.28 8 25.344 2.688 16-10.688 33.28-20.032 51.968-28.032 8-2.688 17.28-5.312 26.688-8 83.968-16 163.968 17.344 209.28 72 16 18.688 4.032 30.72-9.28 30.72H573.312c-10.624 0-21.312 9.28-21.312 19.968v40c0 10.688 10.688 19.968 21.312 19.968h242.688c9.344 0 16-8 16-17.28v-256A20.48 20.48 0 0 0 811.968 192z m-121.344 472a19.328 19.328 0 0 0-28.032 0c-21.312 21.312-48 38.656-77.312 49.28-8 2.752-17.344 5.376-26.688 8.064-83.968 16-163.968-17.344-209.28-72-16-18.688-4.032-30.72 9.28-30.72h93.312a20.48 20.48 0 0 0 20.032-19.968V558.72a20.48 20.48 0 0 0-20.032-19.968H209.408a17.664 17.664 0 0 0-17.344 17.28v256a20.48 20.48 0 0 0 20.032 20.032h39.936a20.48 20.48 0 0 0 20.032-20.032V718.72c0-11.968 13.312-19.968 21.312-10.624 61.376 69.312 152 105.28 249.344 96a256.32 256.32 0 0 0 98.688-29.376c29.312-14.656 54.656-33.28 75.968-54.656 8-8 8-21.312 0-28.032l-26.624-27.968z" p-id="8425"></path></svg>