<?xml version="1.0" standalone="no"?><!DOCTYPE svg PUBLIC "-//W3C//DTD SVG 1.1//EN" "http://www.w3.org/Graphics/SVG/1.1/DTD/svg11.dtd"><svg t="1534924578368" class="icon" style="" viewBox="0 0 1024 1024" version="1.1" xmlns="http://www.w3.org/2000/svg" p-id="15167" xmlns:xlink="http://www.w3.org/1999/xlink" width="200" height="200"><defs><style type="text/css"></style></defs><path d="M960 300.8c0 6.4 0 6.4-6.4 12.8l-160 160s-6.4 6.4-12.8 6.4-6.4 0-12.8-6.4V364.8h-128c-12.8 0-32 0-44.8 6.4-12.8 6.4-25.6 19.2-32 25.6-12.8 12.8-19.2 19.2-25.6 32s-12.8 25.6-25.6 38.4c-6.4 19.2-19.2 51.2-38.4 83.2-6.4 25.6-19.2 44.8-25.6 57.6-6.4 12.8-12.8 32-25.6 51.2-12.8 19.2-19.2 38.4-32 51.2l-38.4 38.4c-12.8 12.8-32 25.6-44.8 32-12.8 6.4-32 12.8-51.2 19.2-19.2 6.4-38.4 6.4-64 6.4H76.8c-6.4 0-6.4 0-12.8-6.4 0 0-6.4-6.4-6.4-12.8V704c0-6.4 0-6.4 6.4-12.8 0 0 6.4-6.4 12.8-6.4H192c19.2 0 32 0 44.8-6.4s25.6-12.8 32-25.6c12.8-12.8 19.2-19.2 25.6-32 6.4-6.4 12.8-19.2 25.6-32 12.8-19.2 25.6-51.2 38.4-83.2 6.4-25.6 19.2-44.8 25.6-57.6 6.4-12.8 12.8-32 25.6-51.2 12.8-19.2 19.2-38.4 32-51.2 6.4-12.8 19.2-25.6 38.4-44.8 12.8-12.8 32-25.6 44.8-32 12.8-6.4 32-12.8 51.2-19.2 19.2-6.4 38.4-6.4 64-6.4h128V147.2c0-6.4 0-6.4 6.4-12.8 0 0 6.4-6.4 12.8-6.4s6.4 0 12.8 6.4L960 294.4v6.4z m-563.2 51.2c-19.2 32-44.8 76.8-70.4 134.4-6.4-12.8-12.8-25.6-19.2-32 0-12.8-6.4-19.2-19.2-32-6.4-12.8-12.8-25.6-25.6-32-6.4-6.4-19.2-12.8-32-12.8-12.8-6.4-25.6-12.8-38.4-12.8H76.8c-6.4 0-6.4 0-12.8-6.4V256c0-6.4 0-6.4 6.4-12.8 0 0 6.4-6.4 12.8-6.4H192c83.2 0 153.6 38.4 204.8 115.2z m563.2 396.8c0 6.4 0 6.4-6.4 12.8l-160 160s-6.4 6.4-12.8 6.4-6.4 0-12.8-6.4c-6.4 0-6.4-6.4-6.4-12.8v-96H601.6c-6.4 0-19.2 0-32-6.4-12.8 0-25.6-6.4-32-6.4-6.4-6.4-19.2-6.4-32-12.8 6.4-6.4-6.4-12.8-12.8-19.2l-25.6-25.6c-12.8-12.8-19.2-19.2-25.6-32 19.2-32 44.8-76.8 70.4-134.4 0 6.4 6.4 19.2 12.8 25.6 6.4 6.4 12.8 19.2 19.2 32 6.4 12.8 19.2 19.2 25.6 25.6 6.4 6.4 19.2 12.8 32 19.2 12.8 6.4 25.6 6.4 38.4 6.4h128V588.8c0-6.4 0-6.4 6.4-12.8 0 0 6.4-6.4 12.8-6.4s6.4 0 12.8 6.4l160 160v12.8z" p-id="15168"></path></svg>