<?xml version="1.0" standalone="no"?><!DOCTYPE svg PUBLIC "-//W3C//DTD SVG 1.1//EN" "http://www.w3.org/Graphics/SVG/1.1/DTD/svg11.dtd"><svg t="1535683255233" class="icon" style="" viewBox="0 0 1024 1024" version="1.1" xmlns="http://www.w3.org/2000/svg" p-id="4338" xmlns:xlink="http://www.w3.org/1999/xlink" width="200" height="200"><defs><style type="text/css"></style></defs><path d="M513.762645 644.452661l0 207.226668 133.075855 0L646.838499 579.970044l-106.352213 85.809341L513.762645 644.452661zM66.776358 851.678306l133.034922 0L199.81128 640.550795l-133.034922 102.907765L66.776358 851.678306zM290.270525 570.59042l0 281.08891 133.033899 0L423.304424 572.250222l-66.474994-53.072753L290.270525 570.59042zM737.299791 851.678306l133.075855 0L870.375645 399.546835 737.299791 506.938728 737.299791 851.678306zM702.733531 172.320671l108.301612 99.751888-270.548856 218.430848-183.65788-146.68378-290.799062 224.862327 0 97.181343 290.799062-224.904283 183.65788 146.645918 326.775438-263.701914 90.707908 83.61128L957.969633 172.320671 702.733531 172.320671z" p-id="4339"></path></svg>