<?xml version="1.0" standalone="no"?><!DOCTYPE svg PUBLIC "-//W3C//DTD SVG 1.1//EN" "http://www.w3.org/Graphics/SVG/1.1/DTD/svg11.dtd"><svg t="1536759336545" class="icon" style="" viewBox="0 0 1024 1024" version="1.1" xmlns="http://www.w3.org/2000/svg" p-id="1197" xmlns:xlink="http://www.w3.org/1999/xlink" width="200" height="200"><defs><style type="text/css"></style></defs><path d="M271.375 319.505l385 0 0 48.115-385 0L271.375 319.505z" p-id="1198"></path><path d="M271.375 415.755l192.5 0 0 48.115-192.5 0L271.375 415.755z" p-id="1199"></path><path d="M656.375 897.005c-132.892 0-240.625-107.733-240.625-240.625 0-132.902 107.733-240.625 240.625-240.625S897 523.478 897 656.38C897 789.272 789.267 897.005 656.375 897.005zM656.375 800.745c22.243 0 43.062-5.438 61.889-14.428L526.428 594.491C517.448 613.318 512 634.136 512 656.38 512 736.113 576.641 800.745 656.375 800.745zM656.375 512.005c-22.243 0-43.072 5.448-61.879 14.428l191.826 191.826c8.98-18.817 14.428-39.636 14.428-61.879C800.75 576.637 736.109 512.005 656.375 512.005z" p-id="1200"></path><path d="M704.5 367.62l0-96.24c0-26.584-21.55-48.135-48.125-48.135l-96.25 0-288.75 0c-26.584 0-48.125 21.55-48.125 48.135l0 481.25c0 26.575 21.541 48.115 48.125 48.115L415.75 800.745l0 96.26-192.5 0c-53.159 0-96.25-43.101-96.25-96.26l0-577.5c0-53.149 43.091-96.25 96.25-96.25L704.5 126.995c53.159 0 96.25 43.101 96.25 96.25L800.75 367.62 704.5 367.62z" p-id="1201"></path></svg>