<?xml version="1.0" standalone="no"?><!DOCTYPE svg PUBLIC "-//W3C//DTD SVG 1.1//EN" "http://www.w3.org/Graphics/SVG/1.1/DTD/svg11.dtd"><svg t="1534843625433" class="icon" style="" viewBox="0 0 1024 1024" version="1.1" xmlns="http://www.w3.org/2000/svg" p-id="9124" xmlns:xlink="http://www.w3.org/1999/xlink" width="200" height="200"><defs><style type="text/css"></style></defs><path d="M512.259585 1024.473277c282.89219 0 512.259585-229.363092 512.259585-512.258151C1024.517737 229.32437 795.151776 0 512.259585 0S0 229.32437 0 512.215126C0 795.110185 229.367395 1024.473277 512.259585 1024.473277zM516.26093 152.076908c202.602846 0 366.854454 164.208583 366.854454 366.80856 0 202.684594-164.251608 366.851585-366.854454 366.851585-202.601412 0-366.851585-164.166992-366.851585-366.851585C149.409345 316.28549 313.659518 152.076908 516.26093 152.076908zM469.571406 597.591485l256.129076 0c23.593591 0 42.689613-19.09172 42.689613-42.603563 0-23.593591-19.094588-42.772796-42.689613-42.772796L512.259585 512.215126 512.259585 298.77423c0-23.510409-19.093154-42.688179-42.688179-42.688179-23.596459 0-42.688179 19.17777-42.688179 42.688179l0 256.213692C426.881793 578.501199 445.974947 597.591485 469.571406 597.591485z" p-id="9125"></path></svg>