<?xml version="1.0" standalone="no"?><!DOCTYPE svg PUBLIC "-//W3C//DTD SVG 1.1//EN" "http://www.w3.org/Graphics/SVG/1.1/DTD/svg11.dtd"><svg t="1535011761778" class="icon" style="" viewBox="0 0 1260 1024" version="1.1" xmlns="http://www.w3.org/2000/svg" p-id="4215" xmlns:xlink="http://www.w3.org/1999/xlink" width="246.09375" height="200"><defs><style type="text/css"></style></defs><path d="M1122.067692 825.422769H177.270154c-76.130462 0-138.121846-53.287385-138.121846-118.784V118.784C39.187692 53.287385 101.218462 0 177.309538 0h944.71877c76.130462 0 138.082462 53.287385 138.082461 118.784v587.854769c0 65.496615-61.952 118.784-138.082461 118.784zM177.270154 75.027692c-28.081231 0-50.884923 19.652923-50.884923 43.756308v587.854769c0 24.142769 22.803692 43.716923 50.884923 43.716923h944.718769c28.081231 0 50.884923-19.574154 50.884923-43.716923V118.784c0-24.103385-22.803692-43.716923-50.884923-43.716923H177.309538zM1054.995692 1022.267077H219.687385a46.434462 46.434462 0 0 1 0-92.790154h835.308307a46.395077 46.395077 0 1 1 0 92.790154z" p-id="4216"></path><path d="M589.469538 958.857846V819.593846a46.395077 46.395077 0 1 1 92.829539 0v139.224616a46.395077 46.395077 0 1 1-92.829539 0z" p-id="4217"></path></svg>