<?xml version="1.0" standalone="no"?><!DOCTYPE svg PUBLIC "-//W3C//DTD SVG 1.1//EN" "http://www.w3.org/Graphics/SVG/1.1/DTD/svg11.dtd"><svg t="1536759433559" class="icon" style="" viewBox="0 0 1024 1024" version="1.1" xmlns="http://www.w3.org/2000/svg" p-id="3699" xmlns:xlink="http://www.w3.org/1999/xlink" width="200" height="200"><defs><style type="text/css"></style></defs><path d="M729.051583 924.715873 729.051583 924.715873 674.661148 979.773435 484.412355 787.130835 538.763547 732.112516 674.661148 869.697555 946.495593 594.527478 1000.886027 649.545796 729.051583 924.715873ZM546.965279 630.316854 572.080632 630.316854 572.080632 591.074117 179.653254 591.074117 179.653254 630.316854 530.561815 630.316854 414.24634 748.084311 179.653254 748.084311 179.653254 787.287806 375.8277 787.287806 609.635932 1024 61.92504 1024C40.263049 1024 22.682302 1006.419253 22.682302 984.757262L22.682302 118.944738C22.682302 97.282747 40.263049 79.702 61.92504 79.702L179.653254 79.702 179.653254 118.944738C179.653254 140.645972 197.234 158.187476 218.895991 158.187476L532.837894 158.187476C554.499885 158.187476 572.080632 140.645972 572.080632 118.944738L572.080632 79.702 689.808845 79.702C711.470836 79.702 729.051583 97.282747 729.051583 118.944738L729.051583 704.564114 674.661148 759.621675 546.965279 630.316854ZM572.080632 275.915689 179.653254 275.915689 179.653254 315.158427 572.080632 315.158427 572.080632 275.915689ZM572.080632 432.886641 179.653254 432.886641 179.653254 472.129378 572.080632 472.129378 572.080632 432.886641ZM493.595156 118.944738 258.138729 118.944738C236.476738 118.944738 218.895991 101.403234 218.895991 79.702L218.895991 39.242738C218.895991 17.580747 236.476738 0 258.138729 0L493.595156 0C515.257147 0 532.837894 17.580747 532.837894 39.242738L532.837894 79.702C532.837894 101.403234 515.257147 118.944738 493.595156 118.944738Z" p-id="3700"></path></svg>