<?xml version="1.0" standalone="no"?><!DOCTYPE svg PUBLIC "-//W3C//DTD SVG 1.1//EN" "http://www.w3.org/Graphics/SVG/1.1/DTD/svg11.dtd"><svg t="1535080225648" class="icon" style="" viewBox="0 0 1025 1024" version="1.1" xmlns="http://www.w3.org/2000/svg" p-id="1892" xmlns:xlink="http://www.w3.org/1999/xlink" width="200.1953125" height="200"><defs><style type="text/css"></style></defs><path d="M960 992 0 992 0 128l576 0 0 64L64 192l0 736 832 0L896 480l64 0L960 992zM547.84 689.184l-60.32-120.672-120.736-60.32L737.632 137.376l45.248 45.248-308.032 308 60.416 30.176 30.112 60.32 308-308 45.248 45.248L547.84 689.184zM963.872 273.12l-180.992-180.992 22.592-22.624C829.632 45.312 861.824 32 895.968 32c34.208 0 66.336 13.312 90.528 37.504C1010.656 93.6 1023.968 125.696 1024 159.872c0.032 34.24-13.28 66.432-37.504 90.624L963.872 273.12zM879.36 98.144l78.432 78.4C959.328 171.232 960 165.632 960 159.936c0-17.088-6.656-33.12-18.72-45.152C925.12 98.624 900.8 92.416 879.36 98.144L879.36 98.144zM230.144 825.824l88.128-264.32 60.704 20.256-47.648 142.944 142.912-47.616 20.256 60.672L230.144 825.824z" p-id="1893"></path></svg>