<?xml version="1.0" encoding="utf-8"?>
<!-- Generator: Adobe Illustrator 21.0.0, SVG Export Plug-In . SVG Version: 6.00 Build 0)  -->
<svg version="1.1" id="图层_1" xmlns="http://www.w3.org/2000/svg" xmlns:xlink="http://www.w3.org/1999/xlink" x="0px" y="0px"
	 viewBox="0 0 35 30" style="enable-background:new 0 0 35 30;" xml:space="preserve">
<style type="text/css">
	.st0{fill:#23C6C8;}
	.st1{fill:#FFFFFF;}
</style>
<g>
	<path class="st0" d="M31,30H4c-2.2,0-4-1.8-4-4V4c0-2.2,1.8-4,4-4H31c2.2,0,4,1.8,4,4V26C35,28.2,33.2,30,31,30z"/>
</g>
<g>
	<g>
		<path class="st1" d="M27.4,4.3c0.4,0.1,0.8,0.4,0.8,0.9c0,0.5-0.3,0.8-0.8,0.9H7.6C7.1,6,6.8,5.6,6.8,5.2c0-0.5,0.3-0.8,0.8-0.9
			H27.4z M16.6,22.8V9c0.1-0.4,0.4-0.8,0.9-0.8s0.8,0.3,0.9,0.8v13.7l6.8-6.8c0.2-0.2,0.5-0.3,0.9-0.2c0.3,0.1,0.5,0.3,0.6,0.6
			c0.1,0.3,0,0.6-0.2,0.9l-8.2,8.2c-0.4,0.4-1,0.4-1.4,0l-8.2-8.2c-0.3-0.3-0.3-0.9,0-1.2c0.3-0.3,0.9-0.3,1.2,0L16.6,22.8z
			 M16.6,22.8"/>
	</g>
</g>
</svg>
