<?xml version="1.0" standalone="no"?><!DOCTYPE svg PUBLIC "-//W3C//DTD SVG 1.1//EN" "http://www.w3.org/Graphics/SVG/1.1/DTD/svg11.dtd"><svg t="1534832795017" class="icon" style="" viewBox="0 0 1024 1024" version="1.1" xmlns="http://www.w3.org/2000/svg" p-id="7933" xmlns:xlink="http://www.w3.org/1999/xlink" width="200" height="200"><defs><style type="text/css"></style></defs><path d="M986.851556 949.248H37.546667 37.489778a36.920889 36.920889 0 0 0 0 73.898667h949.361778a36.920889 36.920889 0 0 0 0-73.898667z m-502.328889-78.961778a37.774222 37.774222 0 0 0 26.908444 11.264 37.262222 37.262222 0 0 0 26.851556-11.320889l458.524444-458.979555a38.001778 38.001778 0 0 0 11.207111-26.851556 37.888 37.888 0 0 0-64.568889-26.737778l-394.24 394.638223V37.944889 37.888a37.774222 37.774222 0 1 0-75.491555 0.056889v714.353778L79.530667 357.660444a37.888 37.888 0 0 0-53.475556 53.532445l458.524445 459.093333z" p-id="7934"></path></svg>