<?xml version="1.0" standalone="no"?><!DOCTYPE svg PUBLIC "-//W3C//DTD SVG 1.1//EN" "http://www.w3.org/Graphics/SVG/1.1/DTD/svg11.dtd"><svg t="1536818554696" class="icon" style="" viewBox="0 0 1024 1024" version="1.1" xmlns="http://www.w3.org/2000/svg" p-id="1846" xmlns:xlink="http://www.w3.org/1999/xlink" width="200" height="200"><defs><style type="text/css"></style></defs><path d="M923.648 536.576c-2.048-16.384-16.384-26.624-32.768-26.624-18.432 0-32.768 14.336-32.768 32.768v231.424c0 16.384-6.144 30.72-16.384 40.96s-26.624 18.432-40.96 18.432H223.232c-16.384 0-30.72-6.144-40.96-18.432-10.24-10.24-16.384-26.624-16.384-40.96V311.296c0-32.768 26.624-59.392 59.392-59.392h282.624c16.384 0 30.72-14.336 30.72-32.768 0-18.432-14.336-32.768-30.72-32.768h-317.44c-51.2 0-94.208 43.008-94.208 94.208v522.24c0 51.2 40.96 94.208 94.208 94.208h643.072c51.2 0 94.208-40.96 94.208-94.208V542.72l-4.096-6.144z" p-id="1847"></path><path d="M960.512 329.728L768 135.168l-6.144-6.144-6.144-4.096-2.048 2.048c-4.096-2.048-8.192-2.048-12.288-2.048-12.288 0-24.576 6.144-30.72 16.384-6.144 10.24-6.144 20.48-2.048 30.72l-2.048 2.048 126.976 126.976h-122.88c-225.28 28.672-280.576 167.936-296.96 385.024 0 18.432 16.384 34.816 34.816 34.816 14.336 0 28.672-10.24 32.768-26.624l2.048-8.192c16.384-198.656 55.296-296.96 229.376-315.392h120.832L716.8 491.52l-6.144 8.192c-2.048 4.096-4.096 10.24-4.096 16.384 0 18.432 16.384 34.816 34.816 34.816 6.144 0 12.288-2.048 18.432-4.096l194.56-194.56c4.096-2.048 6.144-6.144 6.144-12.288 2.048-4.096 2.048-6.144 0-10.24z" p-id="1848"></path></svg>