<?xml version="1.0" standalone="no"?><!DOCTYPE svg PUBLIC "-//W3C//DTD SVG 1.1//EN" "http://www.w3.org/Graphics/SVG/1.1/DTD/svg11.dtd"><svg t="1535011721299" class="icon" style="" viewBox="0 0 1024 1024" version="1.1" xmlns="http://www.w3.org/2000/svg" p-id="3499" xmlns:xlink="http://www.w3.org/1999/xlink" width="200" height="200"><defs><style type="text/css"></style></defs><path d="M87.197538 416.085333h104.054154c25.993846 0 34.658462-20.795077 34.658462-34.658461 0-13.915897-10.371282-34.710974-34.658462-34.710975H87.171282C66.349949 346.742154 52.512821 365.804308 52.512821 381.453128c0 15.622564 8.664615 34.658462 34.684717 34.658462z m0 242.76677h104.054154c25.993846 0 34.658462-20.795077 34.658462-34.658462 0-13.915897-10.371282-34.710974-34.658462-34.710974H87.171282C66.349949 589.508923 52.512821 608.597333 52.512821 624.167385c0 15.596308 8.664615 34.684718 34.684717 34.684718zM919.473231 0H191.251692c-25.993846 0-52.040205 25.993846-52.040205 52.013949v17.302974h52.040205c39.857231 0 69.316923 27.779282 69.316923 69.34318 0 41.668923-29.433436 69.369436-69.316923 69.369435H139.211487v104.027898h52.040205c39.883487 0 69.343179 27.726769 69.34318 69.343179 0 41.642667-29.459692 69.369436-69.34318 69.369436H139.211487v104.027898h52.040205c39.883487 0 69.343179 27.726769 69.34318 69.343179 0 41.642667-29.459692 69.369436-69.34318 69.369436H139.211487v104.027898h52.040205c39.883487 0 69.343179 27.726769 69.34318 69.343179s-29.459692 69.369436-69.34318 69.369436H139.211487v17.302974c0 25.993846 25.993846 51.987692 52.040205 51.987693h728.221539c25.993846 0 52.013949-25.993846 52.013948-51.987693V51.987692C971.487179 25.993846 945.467077 0 919.473231 0z m-98.829128 702.227692c-12.182974 25.993846-53.825641 78.007795-95.389539 78.007795-45.056 0-156.041846-60.704821-249.645949-188.993641-86.724923-119.650462-128.341333-208.082051-128.341333-265.294769 0-46.841436 31.245128-67.636513 46.841436-79.766974l5.172513-3.43959c19.08841-13.889641 46.815179-17.355487 57.238974-17.355487 19.08841 0 27.753026 12.130462 32.925539 20.847589 3.492103 8.664615 38.150564 84.965744 41.642666 93.577847 5.251282 13.915897 3.492103 36.443897-12.130461 48.574359l-3.465846 1.732923c-8.664615 5.198769-24.234667 17.329231-25.993847 29.459692-1.759179 6.957949 1.759179 13.889641 6.984206 20.821333 25.993846 36.417641 110.933333 145.644308 126.503384 159.533949 12.156718 12.130462 27.753026 13.837128 38.176821 3.43959 10.371282-8.690872 15.622564-15.622564 15.622564-15.622564l1.732923-1.732923c1.732923 0 8.664615-6.957949 22.580513-6.957949 10.345026 0 19.035897 3.43959 29.407179 10.397538 26.020103 17.329231 83.232821 57.212718 83.232821 57.212718h1.785436c6.852923 12.182974 17.224205 31.271385 5.12 55.558564zM87.171282 173.344821h104.054154c25.993846 0 34.658462-20.742564 34.658461-34.658462s-10.371282-34.658462-34.658461-34.658462H87.171282C66.349949 104.001641 52.512821 123.063795 52.512821 138.660103c0 15.622564 8.664615 34.658462 34.684717 34.658461zM225.910154 866.986667c0-13.915897-10.423795-34.710974-34.710975-34.710975H87.197538C66.349949 832.249436 52.512821 851.285333 52.512821 866.986667c0 15.622564 8.664615 34.658462 34.684717 34.658461h104.001641c26.046359-0.052513 34.710974-20.795077 34.710975-34.658461z" p-id="3500"></path></svg>